<svg width="84" height="76" viewBox="0 0 84 76" fill="none" xmlns="http://www.w3.org/2000/svg">
<path d="M7.5723 49.7844C-4.98826 61.3194 4.5 64 13.2029 56.1927C8.50001 62.6011 10 66.5 21.4322 60.8922C26 62.6011 32.6934 63.0283 37.0246 63.0283C38.0641 63.7119 41.2115 69.2942 42.6552 72L43.5215 63.0283L47.8527 62.6011L52.6171 72L54 62C60 60.5 68 55.7116 71 50.2116C73.5 46.2116 77.305 41 76.5 23.5C76 20.5 75.4749 19.8278 80.77 19.0243C86.4006 18.1698 79.0987 12.2817 76.5 11C73.7607 9.64899 70.9331 9.15501 70.5 13C72.5 16.5 74.7258 15.5 76.5 14.5C81.3887 11.7445 78.5313 6.51046 77 5C74.4013 2.43669 71.5319 1.07277 68.5 1.50001C64.4324 2.07322 59 3.50001 50.5 12.6159C46.0244 13.1856 30.9955 20.1303 24.0309 27C16.6679 34.2628 15.8016 35.2588 13.2029 39.1038C10.6041 42.664 7.71841 49.1806 15.8016 46.3666C23.1647 43.8033 22.2941 43.9229 21.8653 44.2305C17.101 47.6483 13.2895 54.313 24.0309 50.2116C34.7724 46.1103 33.9928 45.5122 33.9928 45.5122C26.1966 48.9299 24.8972 54.0566 30.9609 54.0566C49.4791 54.0566 60.8464 45.5122 64.7445 41.6671C67.27 39.176 72.1075 30.1321 67.7763 25.8599C63.4451 22.4421 59.9801 22.8693 58.2476 22.8693" stroke="white" stroke-width="2" stroke-linecap="round"/>
</svg>
